<!--?xml version="1.0" encoding="utf-8"?-->
<!-- Generator: Adobe Illustrator 18.1.1, SVG Export Plug-In . SVG Version: 6.00 Build 0)  -->

<svg version="1.1" id="_x32_" xmlns="http://www.w3.org/2000/svg" xmlns:xlink="http://www.w3.org/1999/xlink" x="0px" y="0px" viewBox="0 0 512 512" style="width: 256px; height: 256px; opacity: 1;" xml:space="preserve">
<style type="text/css">
	.st0{fill:#4B4B4B;}
</style>
<g>
	<path class="st0" d="M358.738,236.652c-5.269-1.505-10.754,1.549-12.252,6.81c-1.086,3.836-3.416,7.187-6.528,9.568
		c-3.126,2.38-6.94,3.777-11.188,3.777c-4.269,0-8.112-1.418-11.239-3.828c-3.126-2.41-5.449-5.812-6.513-9.683
		c-1.461-5.283-6.918-8.38-12.201-6.926c-5.282,1.455-8.38,6.911-6.925,12.194c2.243,8.12,7.056,15.125,13.511,20.112
		c6.441,4.986,14.604,7.975,23.368,7.975c8.706,0,16.826-2.946,23.245-7.874c6.426-4.929,11.253-11.847,13.54-19.866
		C367.06,243.643,364.006,238.15,358.738,236.652z" style="fill: rgb(75, 75, 75);"></path>
	<path class="st0" d="M220.087,248.911c1.505-5.268-1.542-10.754-6.81-12.259c-5.269-1.505-10.754,1.542-12.267,6.81
		c-1.093,3.828-3.416,7.179-6.528,9.568c-3.126,2.38-6.94,3.777-11.188,3.777c-4.262,0-8.112-1.418-11.239-3.828
		c-3.126-2.41-5.45-5.812-6.513-9.683c-1.462-5.283-6.918-8.38-12.201-6.926c-5.283,1.455-8.381,6.911-6.926,12.194
		c2.243,8.12,7.049,15.125,13.504,20.112c6.448,4.986,14.618,7.975,23.375,7.975c8.706,0,16.826-2.946,23.245-7.874
		C212.974,263.856,217.794,256.937,220.087,248.911z" style="fill: rgb(75, 75, 75);"></path>
	<path class="st0" d="M307.841,327.359c-11.81,16.362-30.974,26.552-51.837,26.546c-20.835,0.006-40.028-10.19-51.852-26.552
		c-3.206-4.437-9.408-5.435-13.851-2.229c-4.436,3.213-5.428,9.408-2.222,13.851c15.48,21.428,40.57,34.766,67.925,34.766
		c27.37,0,52.46-13.338,67.925-34.773c3.206-4.443,2.208-10.638-2.236-13.844C317.249,321.917,311.047,322.915,307.841,327.359z" style="fill: rgb(75, 75, 75);"></path>
	<path class="st0" d="M494.01,230.848c-10.088-10.11-23.831-16.674-38.992-17.759c-9.452-44.369-33.03-83.499-66.008-112.178
		c-36.032-31.35-83.238-50.369-134.743-50.362c-51.44-0.007-98.573,18.953-134.591,50.231
		c-33.152,28.76-56.824,68.07-66.239,112.656c-13.75,1.795-26.147,8.098-35.453,17.412C6.89,241.921-0.008,257.357,0,274.27
		c-0.008,16.905,6.89,32.356,17.984,43.414c11.072,11.094,26.508,17.991,43.414,17.983c1.202,0,2.33-0.173,3.502-0.246
		c14.785,35.208,38.956,65.451,69.539,87.458c33.702,24.273,75.154,38.58,119.828,38.573c44.868,0.007,86.488-14.438,120.269-38.891
		c30.416-22.022,54.479-52.214,69.177-87.334c2.258,0.26,4.545,0.441,6.882,0.441c16.912,0.008,32.348-6.89,43.414-17.983
		c11.094-11.058,17.998-26.509,17.99-43.414C512.008,257.357,505.104,241.921,494.01,230.848z M284.806,81.596
		c1.013,1.172,2.07,2.496,3.119,4.082c4.472,6.788,8.988,17.455,9.017,34.332c0,12.744-2.706,29.121-10.262,49.71
		c-23.86-19.207-37.552-36.908-45.244-51.491c-8.388-15.907-9.9-28.202-9.907-35.323c0-0.919,0.043-1.664,0.087-2.402
		c7.425-0.955,14.952-1.614,22.651-1.614C264.696,78.889,274.885,79.866,284.806,81.596z M226.398,126.167
		c4.292,8.127,10.153,16.884,17.788,26.024c-7.656-3.097-15.335-5.992-22.543-9.046c-12.324-5.196-23.144-11-30.474-18.736
		c-3.692-3.879-6.586-8.214-8.648-13.46c-1.693-4.349-2.779-9.423-3.119-15.4c11.123-5.204,22.897-9.198,35.135-12.006
		C214.616,93.167,216.874,108.148,226.398,126.167z M473.978,297.645c-6.028,6.006-14.206,9.675-23.382,9.69
		c-3.792-0.007-7.44-0.68-10.949-1.91l-13.418-4.718l-4.668,13.432c-12.02,34.599-34.498,64.372-63.648,85.468
		c-29.15,21.088-64.879,33.499-103.647,33.506c-38.602-0.007-74.192-12.31-103.277-33.231
		c-29.085-20.922-51.562-50.47-63.714-84.831l-4.4-12.432l-12.715,3.495c-2.895,0.789-5.804,1.223-8.764,1.223
		c-9.169-0.015-17.347-3.684-23.375-9.69c-6.007-6.028-9.676-14.198-9.684-23.375c0.008-9.177,3.676-17.348,9.684-23.383
		c6.028-6,14.206-9.668,23.375-9.676c0.579-0.007,1.448,0.044,2.634,0.138l13.149,1.034l1.969-13.048
		c6.427-42.56,27.999-80.163,59.096-107.156c7.772-6.737,16.13-12.809,24.982-18.128c0.767,4.798,1.947,9.3,3.596,13.439
		c2.613,6.564,6.274,12.252,10.616,17.108c7.614,8.525,17.13,14.517,27.074,19.431c14.922,7.338,31.046,12.411,44.586,18.736
		c6.781,3.148,12.874,6.563,17.875,10.501c5.014,3.958,8.923,8.351,11.708,13.685c1.506,2.887,4.495,4.653,7.744,4.58
		c3.249-0.079,6.158-1.982,7.519-4.943c14.698-31.842,19.988-56.896,19.996-76.58c0.021-13.331-2.468-24.15-5.992-32.667
		c23.245,7.396,44.456,19.307,62.461,34.954c31.118,27.066,52.67,64.777,59.01,107.424l2.098,14.076l14.061-2.15
		c1.868-0.282,3.524-0.434,5.016-0.434c9.176,0.007,17.354,3.676,23.382,9.676c6.006,6.035,9.675,14.206,9.675,23.383
		C483.653,283.446,479.984,291.616,473.978,297.645z" style="fill: rgb(75, 75, 75);"></path>
</g>
</svg>
